<svg width="60" height="60" viewBox="0 0 60 60" fill="none" xmlns="http://www.w3.org/2000/svg">
<circle cx="30" cy="30" r="30" fill="#CEA3F1"/>
<path d="M9.37074 23.9091H12.4709L15.456 29.5469H15.5838L18.5689 23.9091H21.669L16.8942 32.3722V37H14.1456V32.3722L9.37074 23.9091ZM25.9485 23.9091V37H23.1808V23.9091H25.9485ZM39.7761 28.4922H36.9764C36.9252 28.13 36.8208 27.8082 36.6632 27.527C36.5055 27.2415 36.3031 26.9986 36.0559 26.7983C35.8088 26.598 35.5233 26.4446 35.1994 26.3381C34.8798 26.2315 34.5325 26.1783 34.1575 26.1783C33.4799 26.1783 32.8897 26.3466 32.3869 26.6832C31.8841 27.0156 31.4941 27.5014 31.2172 28.1406C30.9402 28.7756 30.8017 29.5469 30.8017 30.4545C30.8017 31.3878 30.9402 32.1719 31.2172 32.8068C31.4984 33.4418 31.8904 33.9212 32.3933 34.245C32.8961 34.5689 33.4778 34.7308 34.1383 34.7308C34.5091 34.7308 34.8521 34.6818 35.1674 34.5838C35.487 34.4858 35.7704 34.343 36.0176 34.1555C36.2647 33.9638 36.4693 33.7315 36.6312 33.4588C36.7974 33.1861 36.9125 32.875 36.9764 32.5256L39.7761 32.5384C39.7037 33.1392 39.5226 33.7188 39.2328 34.277C38.9473 34.831 38.5616 35.3274 38.0758 35.7663C37.5943 36.201 37.019 36.5462 36.35 36.8018C35.6852 37.0533 34.9331 37.179 34.0936 37.179C32.926 37.179 31.8819 36.9148 30.9615 36.3864C30.0453 35.858 29.3208 35.093 28.7882 34.0916C28.2598 33.0902 27.9956 31.8778 27.9956 30.4545C27.9956 29.027 28.264 27.8125 28.801 26.8111C29.3379 25.8097 30.0666 25.0469 30.987 24.5227C31.9075 23.9943 32.943 23.7301 34.0936 23.7301C34.8521 23.7301 35.5552 23.8366 36.2029 24.0497C36.8549 24.2628 37.4324 24.5739 37.9352 24.983C38.438 25.3878 38.8471 25.8842 39.1625 26.4723C39.4821 27.0604 39.6866 27.7337 39.7761 28.4922ZM48.8624 27.674C48.8113 27.1584 48.5918 26.7578 48.204 26.4723C47.8162 26.1868 47.29 26.044 46.6252 26.044C46.1735 26.044 45.7921 26.108 45.481 26.2358C45.1699 26.3594 44.9313 26.532 44.7651 26.7536C44.6032 26.9751 44.5222 27.2266 44.5222 27.5078C44.5137 27.7422 44.5627 27.9467 44.6692 28.1214C44.78 28.2962 44.9313 28.4474 45.123 28.5753C45.3148 28.6989 45.5364 28.8075 45.7878 28.9013C46.0392 28.9908 46.3077 29.0675 46.5932 29.1314L47.7694 29.4126C48.3404 29.5405 48.8645 29.7109 49.3418 29.924C49.8191 30.1371 50.2324 30.3991 50.5819 30.7102C50.9313 31.0213 51.2019 31.3878 51.3936 31.8097C51.5897 32.2315 51.6898 32.7152 51.6941 33.2607C51.6898 34.0618 51.4853 34.7564 51.0804 35.3445C50.6799 35.9283 50.1003 36.3821 49.3418 36.706C48.5875 37.0256 47.6777 37.1854 46.6124 37.1854C45.5556 37.1854 44.6351 37.0234 43.851 36.6996C43.0712 36.3757 42.4618 35.8963 42.0229 35.2614C41.5882 34.6222 41.3603 33.8317 41.339 32.8899H44.0172C44.0471 33.3288 44.1728 33.6953 44.3944 33.9893C44.6202 34.2791 44.9206 34.4986 45.2956 34.6477C45.6749 34.7926 46.1032 34.8651 46.5804 34.8651C47.0492 34.8651 47.4561 34.7969 47.8013 34.6605C48.1507 34.5241 48.4213 34.3345 48.6131 34.0916C48.8049 33.8487 48.9007 33.5696 48.9007 33.2543C48.9007 32.9602 48.8134 32.7131 48.6387 32.5128C48.4682 32.3125 48.2168 32.142 47.8844 32.0014C47.5563 31.8608 47.1536 31.733 46.6763 31.6179L45.2509 31.2599C44.1472 30.9915 43.2757 30.5717 42.6365 30.0007C41.9973 29.4297 41.6799 28.6605 41.6841 27.6932C41.6799 26.9006 41.8908 26.2081 42.3169 25.6158C42.7473 25.0234 43.3375 24.5611 44.0875 24.2287C44.8375 23.8963 45.6898 23.7301 46.6444 23.7301C47.6159 23.7301 48.464 23.8963 49.1884 24.2287C49.9171 24.5611 50.4838 25.0234 50.8887 25.6158C51.2935 26.2081 51.5023 26.8942 51.5151 27.674H48.8624Z" fill="#37094D"/>
</svg>
